<?xml version="1.0" encoding="UTF-8" standalone="no"?>
<!DOCTYPE svg PUBLIC "-//W3C//DTD SVG 1.1//EN"
 "http://www.w3.org/Graphics/SVG/1.1/DTD/svg11.dtd">
<!-- Generated by graphviz version 2.26.3 (20100126.1600)
 -->
<!-- Title: StCSP Pages: 1 -->
<svg width="1174pt" height="854pt"
 viewBox="0.00 0.00 1174.00 854.00" xmlns="http://www.w3.org/2000/svg" xmlns:xlink="http://www.w3.org/1999/xlink">
<g id="graph1" class="graph" transform="scale(1 1) rotate(0) translate(4 850)">
<title>StCSP</title>
<polygon fill="white" stroke="white" points="-4,5 -4,-850 1171,-850 1171,5 -4,5"/>
<!-- 0 -->
<g id="node1" class="node"><title>0</title>
<ellipse fill="none" stroke="black" cx="841" cy="-828" rx="30.0736" ry="18"/>
<text text-anchor="middle" x="841" y="-823.9" font-family="Times Roman,serif" font-size="14.00">0: S</text>
</g>
<!-- 1 -->
<g id="node3" class="node"><title>1</title>
<ellipse fill="none" stroke="black" cx="627" cy="-738" rx="43.0827" ry="18"/>
<text text-anchor="middle" x="627" y="-733.9" font-family="Times Roman,serif" font-size="14.00">1: 0, 2</text>
</g>
<!-- 0&#45;&gt;1 -->
<g id="edge2" class="edge"><title>0&#45;&gt;1</title>
<path fill="none" stroke="black" d="M811.04,-826.07C745.513,-821.542 594.088,-809.302 579,-792 569.238,-780.805 578.778,-768.412 591.853,-758.325"/>
<polygon fill="black" stroke="black" points="594.145,-760.991 600.309,-752.373 590.117,-755.267 594.145,-760.991"/>
<text text-anchor="middle" x="602" y="-778.9" font-family="Times Roman,serif" font-size="14.00">2, 0, 2</text>
</g>
<!-- 0&#45;&gt;1 -->
<g id="edge4" class="edge"><title>0&#45;&gt;1</title>
<path fill="none" stroke="black" d="M811.075,-825.935C763.229,-822.068 672.404,-812.23 648,-792 640.068,-785.425 635.122,-775.467 632.042,-765.886"/>
<polygon fill="black" stroke="black" points="635.416,-764.958 629.46,-756.196 628.652,-766.76 635.416,-764.958"/>
<text text-anchor="middle" x="671" y="-778.9" font-family="Times Roman,serif" font-size="14.00">1, 0, 2</text>
</g>
<!-- 0&#45;&gt;1 -->
<g id="edge6" class="edge"><title>0&#45;&gt;1</title>
<path fill="none" stroke="black" d="M812.012,-822.851C786.107,-817.503 747.627,-807.685 717,-792 705.446,-786.083 704.868,-781.098 694,-774 684.52,-767.808 673.873,-761.726 663.905,-756.373"/>
<polygon fill="black" stroke="black" points="665.474,-753.244 654.995,-751.681 662.212,-759.437 665.474,-753.244"/>
<text text-anchor="middle" x="740" y="-778.9" font-family="Times Roman,serif" font-size="14.00">0, 0, 2</text>
</g>
<!-- 7 -->
<g id="node25" class="node"><title>7</title>
<ellipse fill="none" stroke="black" cx="757" cy="-378" rx="43.0827" ry="18"/>
<text text-anchor="middle" x="757" y="-373.9" font-family="Times Roman,serif" font-size="14.00">1: 1, 2</text>
</g>
<!-- 0&#45;&gt;7 -->
<g id="edge62" class="edge"><title>0&#45;&gt;7</title>
<path fill="none" stroke="black" d="M833.389,-810.53C818.105,-774.352 784.19,-688.239 773,-612 765.979,-564.166 791.457,-552.038 786,-504 782.103,-469.695 772.421,-431.129 765.311,-405.805"/>
<polygon fill="black" stroke="black" points="768.66,-404.787 762.541,-396.138 761.931,-406.715 768.66,-404.787"/>
<text text-anchor="middle" x="796" y="-598.9" font-family="Times Roman,serif" font-size="14.00">2, 1, 2</text>
</g>
<!-- 0&#45;&gt;7 -->
<g id="edge64" class="edge"><title>0&#45;&gt;7</title>
<path fill="none" stroke="black" d="M841,-809.728C841,-791.545 841,-762.844 841,-738 841,-738 841,-738 841,-468 841,-437.866 815.522,-413.626 792.629,-397.928"/>
<polygon fill="black" stroke="black" points="794.33,-394.859 784.041,-392.335 790.511,-400.725 794.33,-394.859"/>
<text text-anchor="middle" x="864" y="-598.9" font-family="Times Roman,serif" font-size="14.00">1, 1, 2</text>
</g>
<!-- 0&#45;&gt;7 -->
<g id="edge66" class="edge"><title>0&#45;&gt;7</title>
<path fill="none" stroke="black" d="M860.958,-814.283C881.336,-798.484 910,-770.486 910,-738 910,-738 910,-738 910,-468 910,-419.437 852.027,-396.559 807.452,-386.145"/>
<polygon fill="black" stroke="black" points="808.116,-382.708 797.6,-383.991 806.621,-389.546 808.116,-382.708"/>
<text text-anchor="middle" x="933" y="-598.9" font-family="Times Roman,serif" font-size="14.00">0, 1, 2</text>
</g>
<!-- 9 -->
<g id="node33" class="node"><title>9</title>
<ellipse fill="none" stroke="black" cx="864" cy="-288" rx="43.0827" ry="18"/>
<text text-anchor="middle" x="864" y="-283.9" font-family="Times Roman,serif" font-size="14.00">1: 2, 2</text>
</g>
<!-- 0&#45;&gt;9 -->
<g id="edge68" class="edge"><title>0&#45;&gt;9</title>
<path fill="none" stroke="black" d="M866.725,-818.42C879.858,-812.468 895.282,-803.7 906,-792 917.827,-779.089 916.354,-772.574 922,-756 943.238,-693.655 949.167,-677.396 957,-612 957.951,-604.057 957.049,-602 957,-594 956.778,-557.998 956,-549.003 956,-513 956,-513 956,-513 956,-378 956,-346.02 927.243,-321.668 901.885,-306.41"/>
<polygon fill="black" stroke="black" points="903.528,-303.318 893.109,-301.394 900.055,-309.395 903.528,-303.318"/>
<text text-anchor="middle" x="979" y="-553.9" font-family="Times Roman,serif" font-size="14.00">2, 2, 2</text>
</g>
<!-- 0&#45;&gt;9 -->
<g id="edge70" class="edge"><title>0&#45;&gt;9</title>
<path fill="none" stroke="black" d="M869.225,-821.35C923.698,-807.691 1038,-774.661 1038,-738 1038,-738 1038,-738 1038,-378 1038,-322.681 967.756,-301.325 916.53,-293.107"/>
<polygon fill="black" stroke="black" points="916.97,-289.634 906.565,-291.632 915.945,-296.558 916.97,-289.634"/>
<text text-anchor="middle" x="1061" y="-553.9" font-family="Times Roman,serif" font-size="14.00">1, 2, 2</text>
</g>
<!-- 0&#45;&gt;9 -->
<g id="edge72" class="edge"><title>0&#45;&gt;9</title>
<path fill="none" stroke="black" d="M870.594,-824.826C942.398,-816.305 1120,-789.977 1120,-738 1120,-738 1120,-738 1120,-378 1120,-334.974 989.671,-307.528 914.995,-295.334"/>
<polygon fill="black" stroke="black" points="915.274,-291.834 904.847,-293.714 914.17,-298.747 915.274,-291.834"/>
<text text-anchor="middle" x="1143" y="-553.9" font-family="Times Roman,serif" font-size="14.00">0, 2, 2</text>
</g>
<!-- 2 -->
<g id="node7" class="node"><title>2</title>
<ellipse fill="none" stroke="black" cx="561" cy="-648" rx="43.0827" ry="18"/>
<text text-anchor="middle" x="561" y="-643.9" font-family="Times Roman,serif" font-size="14.00">1: 2, 0</text>
</g>
<!-- 1&#45;&gt;2 -->
<g id="edge8" class="edge"><title>1&#45;&gt;2</title>
<path fill="none" stroke="black" d="M622.183,-720.083C618.623,-708.984 612.997,-694.832 605,-684 601.23,-678.893 596.577,-674.081 591.723,-669.736"/>
<polygon fill="black" stroke="black" points="593.949,-667.036 584.028,-663.32 589.467,-672.412 593.949,-667.036"/>
<text text-anchor="middle" x="639" y="-688.9" font-family="Times Roman,serif" font-size="14.00">0, 2, 0</text>
</g>
<!-- 8 -->
<g id="node28" class="node"><title>8</title>
<ellipse fill="none" stroke="black" cx="652" cy="-198" rx="43.0827" ry="18"/>
<text text-anchor="middle" x="652" y="-193.9" font-family="Times Roman,serif" font-size="14.00">1: 2, 1</text>
</g>
<!-- 1&#45;&gt;8 -->
<g id="edge58" class="edge"><title>1&#45;&gt;8</title>
<path fill="none" stroke="black" d="M647.755,-721.91C654.216,-716.15 660.961,-709.27 666,-702 680.764,-680.701 688,-673.915 688,-648 688,-648 688,-648 688,-513 688,-395.777 656.482,-369.044 650,-252 649.533,-243.57 649.642,-234.393 649.979,-226.036"/>
<polygon fill="black" stroke="black" points="653.476,-226.176 650.502,-216.008 646.486,-225.812 653.476,-226.176"/>
<text text-anchor="middle" x="710" y="-463.9" font-family="Times Roman,serif" font-size="14.00">0, 2, 1</text>
</g>
<!-- 1&#45;&gt;9 -->
<g id="edge60" class="edge"><title>1&#45;&gt;9</title>
<path fill="none" stroke="black" d="M663.794,-728.298C677.784,-722.802 692.601,-714.449 702,-702 755.799,-630.74 702.697,-586.845 736,-504 757.609,-450.244 779.393,-445.8 809,-396 824.923,-369.216 840.828,-337.281 851.408,-315.116"/>
<polygon fill="black" stroke="black" points="854.624,-316.502 855.738,-305.966 848.297,-313.508 854.624,-316.502"/>
<text text-anchor="middle" x="759" y="-508.9" font-family="Times Roman,serif" font-size="14.00">0, 2, 2</text>
</g>
<!-- 2&#45;&gt;1 -->
<g id="edge10" class="edge"><title>2&#45;&gt;1</title>
<path fill="none" stroke="black" d="M553.683,-665.777C550.31,-676.957 548.355,-691.248 555,-702 561.08,-711.838 570.754,-719.078 581.062,-724.371"/>
<polygon fill="black" stroke="black" points="579.658,-727.578 590.21,-728.538 582.56,-721.207 579.658,-727.578"/>
<text text-anchor="middle" x="578" y="-688.9" font-family="Times Roman,serif" font-size="14.00">2, 0, 2</text>
</g>
<!-- 3 -->
<g id="node10" class="node"><title>3</title>
<ellipse fill="none" stroke="black" cx="161" cy="-18" rx="43.0827" ry="18"/>
<text text-anchor="middle" x="161" y="-13.9" font-family="Times Roman,serif" font-size="14.00">1: 0, 0</text>
</g>
<!-- 2&#45;&gt;3 -->
<g id="edge12" class="edge"><title>2&#45;&gt;3</title>
<path fill="none" stroke="black" d="M560.414,-629.892C558.904,-581.641 555,-445.95 555,-333 555,-333 555,-333 555,-108 555,-38.9234 321.922,-22.8641 214.303,-19.1307"/>
<polygon fill="black" stroke="black" points="214.4,-15.6321 204.292,-18.8065 214.173,-22.6284 214.4,-15.6321"/>
<text text-anchor="middle" x="579" y="-328.9" font-family="Times Roman,serif" font-size="14.00">2, 0, 0</text>
</g>
<!-- 4 -->
<g id="node14" class="node"><title>4</title>
<ellipse fill="none" stroke="black" cx="269" cy="-558" rx="43.0827" ry="18"/>
<text text-anchor="middle" x="269" y="-553.9" font-family="Times Roman,serif" font-size="14.00">1: 0, 1</text>
</g>
<!-- 2&#45;&gt;4 -->
<g id="edge56" class="edge"><title>2&#45;&gt;4</title>
<path fill="none" stroke="black" d="M526.357,-637.322C473.375,-620.992 372.225,-589.816 313.754,-571.794"/>
<polygon fill="black" stroke="black" points="314.639,-568.404 304.052,-568.804 312.577,-575.094 314.639,-568.404"/>
<text text-anchor="middle" x="465" y="-598.9" font-family="Times Roman,serif" font-size="14.00">2, 0, 1</text>
</g>
<!-- 3&#45;&gt;1 -->
<g id="edge14" class="edge"><title>3&#45;&gt;1</title>
<path fill="none" stroke="black" d="M119.538,-23.0669C71.8353,-31.4809 0,-53.2421 0,-108 0,-648 0,-648 0,-648 0,-714.276 74.3519,-687.401 139,-702 220.581,-720.422 465.354,-731.803 574.025,-736.075"/>
<polygon fill="black" stroke="black" points="573.978,-739.576 584.106,-736.467 574.249,-732.581 573.978,-739.576"/>
<text text-anchor="middle" x="23" y="-373.9" font-family="Times Roman,serif" font-size="14.00">0, 0, 2</text>
</g>
<!-- 3&#45;&gt;3 -->
<g id="edge16" class="edge"><title>3&#45;&gt;3</title>
<path fill="none" stroke="black" d="M199.422,-26.2495C211.992,-26.2069 222,-23.457 222,-18 222,-14.163 217.052,-11.6644 209.745,-10.5043"/>
<polygon fill="black" stroke="black" points="209.651,-6.98816 199.422,-9.7505 209.141,-13.9696 209.651,-6.98816"/>
<text text-anchor="middle" x="245" y="-13.9" font-family="Times Roman,serif" font-size="14.00">0, 0, 0</text>
</g>
<!-- 3&#45;&gt;4 -->
<g id="edge18" class="edge"><title>3&#45;&gt;4</title>
<path fill="none" stroke="black" d="M151.021,-35.6545C141.958,-53.3694 130,-81.7238 130,-108 130,-243 130,-243 130,-243 130,-271 126.005,-278.287 130,-306 141.9,-388.543 149.189,-409.766 183,-486 190.602,-503.141 191.503,-508.983 205,-522 212.219,-528.962 221.045,-535.045 229.809,-540.132"/>
<polygon fill="black" stroke="black" points="228.395,-543.348 238.849,-545.067 231.749,-537.203 228.395,-543.348"/>
<text text-anchor="middle" x="153" y="-283.9" font-family="Times Roman,serif" font-size="14.00">0, 0, 1</text>
</g>
<!-- 5 -->
<g id="node16" class="node"><title>5</title>
<ellipse fill="none" stroke="black" cx="223" cy="-108" rx="43.0827" ry="18"/>
<text text-anchor="middle" x="223" y="-103.9" font-family="Times Roman,serif" font-size="14.00">1: 1, 0</text>
</g>
<!-- 4&#45;&gt;5 -->
<g id="edge20" class="edge"><title>4&#45;&gt;5</title>
<path fill="none" stroke="black" d="M242.658,-543.587C234.324,-537.86 225.787,-530.575 220,-522 173.808,-453.558 184.303,-423.926 174,-342 173.002,-334.063 172.719,-331.897 174,-324 175.351,-315.676 177.769,-314.132 180,-306 196.421,-246.156 210.63,-174.764 217.877,-136.159"/>
<polygon fill="black" stroke="black" points="221.346,-136.648 219.733,-126.177 214.464,-135.369 221.346,-136.648"/>
<text text-anchor="middle" x="197" y="-328.9" font-family="Times Roman,serif" font-size="14.00">0, 1, 0</text>
</g>
<!-- 6 -->
<g id="node21" class="node"><title>6</title>
<ellipse fill="none" stroke="black" cx="305" cy="-468" rx="43.0827" ry="18"/>
<text text-anchor="middle" x="305" y="-463.9" font-family="Times Roman,serif" font-size="14.00">1: 1, 1</text>
</g>
<!-- 4&#45;&gt;6 -->
<g id="edge28" class="edge"><title>4&#45;&gt;6</title>
<path fill="none" stroke="black" d="M276.112,-540.219C281.207,-527.482 288.166,-510.086 293.977,-495.559"/>
<polygon fill="black" stroke="black" points="297.315,-496.637 297.779,-486.052 290.815,-494.037 297.315,-496.637"/>
<text text-anchor="middle" x="314" y="-508.9" font-family="Times Roman,serif" font-size="14.00">0, 1, 1</text>
</g>
<!-- 4&#45;&gt;7 -->
<g id="edge54" class="edge"><title>4&#45;&gt;7</title>
<path fill="none" stroke="black" d="M300.921,-545.925C332.654,-533.235 382.08,-511.58 421,-486 462.942,-458.433 461.846,-433.721 508,-414 542.433,-399.287 642.435,-388.134 704.731,-382.372"/>
<polygon fill="black" stroke="black" points="705.125,-385.85 714.767,-381.46 704.491,-378.879 705.125,-385.85"/>
<text text-anchor="middle" x="484" y="-463.9" font-family="Times Roman,serif" font-size="14.00">0, 1, 2</text>
</g>
<!-- 5&#45;&gt;1 -->
<g id="edge22" class="edge"><title>5&#45;&gt;1</title>
<path fill="none" stroke="black" d="M182.678,-114.508C138.551,-124.199 74,-147.078 74,-198 74,-648 74,-648 74,-648 74,-698.303 435.079,-726.077 573.697,-734.885"/>
<polygon fill="black" stroke="black" points="573.868,-738.403 584.067,-735.535 574.306,-731.416 573.868,-738.403"/>
<text text-anchor="middle" x="97" y="-418.9" font-family="Times Roman,serif" font-size="14.00">1, 0, 2</text>
</g>
<!-- 5&#45;&gt;3 -->
<g id="edge24" class="edge"><title>5&#45;&gt;3</title>
<path fill="none" stroke="black" d="M211.046,-90.6471C201.868,-77.3248 189.054,-58.7242 178.691,-43.6798"/>
<polygon fill="black" stroke="black" points="181.473,-41.5491 172.918,-35.2996 175.708,-45.5203 181.473,-41.5491"/>
<text text-anchor="middle" x="221" y="-58.9" font-family="Times Roman,serif" font-size="14.00">1, 0, 0</text>
</g>
<!-- 5&#45;&gt;4 -->
<g id="edge26" class="edge"><title>5&#45;&gt;4</title>
<path fill="none" stroke="black" d="M225.774,-126.286C226.571,-131.954 227.389,-138.227 228,-144 244.047,-295.558 230.855,-335.212 253,-486 255.158,-500.695 258.645,-516.855 261.814,-530.135"/>
<polygon fill="black" stroke="black" points="258.473,-531.208 264.256,-540.085 265.272,-529.539 258.473,-531.208"/>
<text text-anchor="middle" x="263" y="-328.9" font-family="Times Roman,serif" font-size="14.00">1, 0, 1</text>
</g>
<!-- 6&#45;&gt;5 -->
<g id="edge30" class="edge"><title>6&#45;&gt;5</title>
<path fill="none" stroke="black" d="M306.022,-449.644C308.109,-398.33 308.832,-250.199 256,-144 253.948,-139.875 251.28,-135.879 248.35,-132.143"/>
<polygon fill="black" stroke="black" points="250.854,-129.688 241.655,-124.431 245.568,-134.277 250.854,-129.688"/>
<text text-anchor="middle" x="324" y="-283.9" font-family="Times Roman,serif" font-size="14.00">1, 1, 0</text>
</g>
<!-- 6&#45;&gt;6 -->
<g id="edge32" class="edge"><title>6&#45;&gt;6</title>
<path fill="none" stroke="black" d="M343.422,-476.249C355.992,-476.207 366,-473.457 366,-468 366,-464.163 361.052,-461.664 353.745,-460.504"/>
<polygon fill="black" stroke="black" points="353.651,-456.988 343.422,-459.751 353.141,-463.97 353.651,-456.988"/>
<text text-anchor="middle" x="389" y="-463.9" font-family="Times Roman,serif" font-size="14.00">1, 1, 1</text>
</g>
<!-- 6&#45;&gt;7 -->
<g id="edge34" class="edge"><title>6&#45;&gt;7</title>
<path fill="none" stroke="black" d="M334.805,-454.751C348.06,-448.443 363.652,-440.44 377,-432 387.971,-425.063 387.956,-418.842 400,-414 453.804,-392.368 618.174,-383.159 703.828,-379.746"/>
<polygon fill="black" stroke="black" points="704.014,-383.241 713.871,-379.358 703.743,-376.246 704.014,-383.241"/>
<text text-anchor="middle" x="423" y="-418.9" font-family="Times Roman,serif" font-size="14.00">1, 1, 2</text>
</g>
<!-- 7&#45;&gt;2 -->
<g id="edge36" class="edge"><title>7&#45;&gt;2</title>
<path fill="none" stroke="black" d="M716.036,-383.886C656.073,-395.04 547.072,-425.611 506,-504 485.087,-543.914 515.478,-593.618 538.731,-622.967"/>
<polygon fill="black" stroke="black" points="536.303,-625.525 545.353,-631.034 541.714,-621.084 536.303,-625.525"/>
<text text-anchor="middle" x="529" y="-508.9" font-family="Times Roman,serif" font-size="14.00">1, 2, 0</text>
</g>
<!-- 7&#45;&gt;8 -->
<g id="edge38" class="edge"><title>7&#45;&gt;8</title>
<path fill="none" stroke="black" d="M754.414,-359.692C750.633,-337.272 742.099,-298.738 725,-270 713.711,-251.026 696.225,-233.537 681.197,-220.547"/>
<polygon fill="black" stroke="black" points="683.07,-217.55 673.156,-213.813 678.575,-222.917 683.07,-217.55"/>
<text text-anchor="middle" x="764" y="-283.9" font-family="Times Roman,serif" font-size="14.00">1, 2, 1</text>
</g>
<!-- 7&#45;&gt;9 -->
<g id="edge46" class="edge"><title>7&#45;&gt;9</title>
<path fill="none" stroke="black" d="M765.031,-360.177C770.912,-348.697 779.808,-334.087 791,-324 799.93,-315.951 810.988,-309.276 821.772,-303.951"/>
<polygon fill="black" stroke="black" points="823.518,-306.999 831.118,-299.618 820.574,-300.648 823.518,-306.999"/>
<text text-anchor="middle" x="814" y="-328.9" font-family="Times Roman,serif" font-size="14.00">1, 2, 2</text>
</g>
<!-- 8&#45;&gt;5 -->
<g id="edge40" class="edge"><title>8&#45;&gt;5</title>
<path fill="none" stroke="black" d="M613.552,-189.934C535.291,-173.516 357.627,-136.243 271.547,-118.185"/>
<polygon fill="black" stroke="black" points="272.022,-114.708 261.516,-116.08 270.585,-121.559 272.022,-114.708"/>
<text text-anchor="middle" x="499" y="-148.9" font-family="Times Roman,serif" font-size="14.00">2, 1, 0</text>
</g>
<!-- 8&#45;&gt;6 -->
<g id="edge42" class="edge"><title>8&#45;&gt;6</title>
<path fill="none" stroke="black" d="M631.074,-213.798C599.662,-237.554 538.507,-283.962 487,-324 432.223,-366.58 368.792,-417.03 333.132,-445.497"/>
<polygon fill="black" stroke="black" points="330.739,-442.929 325.11,-451.905 335.108,-448.399 330.739,-442.929"/>
<text text-anchor="middle" x="510" y="-328.9" font-family="Times Roman,serif" font-size="14.00">2, 1, 1</text>
</g>
<!-- 8&#45;&gt;7 -->
<g id="edge44" class="edge"><title>8&#45;&gt;7</title>
<path fill="none" stroke="black" d="M652.419,-216.064C653.678,-238.577 658.33,-277.551 675,-306 687.1,-326.649 707.226,-344.452 724.51,-357.189"/>
<polygon fill="black" stroke="black" points="722.541,-360.083 732.719,-363.025 726.597,-354.378 722.541,-360.083"/>
<text text-anchor="middle" x="698" y="-283.9" font-family="Times Roman,serif" font-size="14.00">2, 1, 2</text>
</g>
<!-- 9&#45;&gt;2 -->
<g id="edge48" class="edge"><title>9&#45;&gt;2</title>
<path fill="none" stroke="black" d="M831.242,-299.725C813.493,-306.351 791.305,-315.076 772,-324 692.351,-360.82 662.027,-372.971 620,-450 584.48,-515.103 606.392,-542.693 580,-612 578.818,-615.104 577.43,-618.282 575.95,-621.402"/>
<polygon fill="black" stroke="black" points="572.76,-619.954 571.356,-630.455 579.003,-623.121 572.76,-619.954"/>
<text text-anchor="middle" x="643" y="-463.9" font-family="Times Roman,serif" font-size="14.00">2, 2, 0</text>
</g>
<!-- 9&#45;&gt;8 -->
<g id="edge50" class="edge"><title>9&#45;&gt;8</title>
<path fill="none" stroke="black" d="M841.091,-272.675C822.733,-260.9 796,-244.863 771,-234 748.082,-224.041 721.556,-215.728 699.372,-209.608"/>
<polygon fill="black" stroke="black" points="700.079,-206.173 689.513,-206.952 698.259,-212.933 700.079,-206.173"/>
<text text-anchor="middle" x="828" y="-238.9" font-family="Times Roman,serif" font-size="14.00">2, 2, 1</text>
</g>
<!-- 9&#45;&gt;9 -->
<g id="edge52" class="edge"><title>9&#45;&gt;9</title>
<path fill="none" stroke="black" d="M902.422,-296.249C914.992,-296.207 925,-293.457 925,-288 925,-284.163 920.052,-281.664 912.745,-280.504"/>
<polygon fill="black" stroke="black" points="912.651,-276.988 902.422,-279.751 912.141,-283.97 912.651,-276.988"/>
<text text-anchor="middle" x="948" y="-283.9" font-family="Times Roman,serif" font-size="14.00">2, 2, 2</text>
</g>
</g>
</svg>
